<?xml version="1.0" encoding="UTF-8" standalone="no"?>

<svg
   width="76.766869mm"
   height="55.143661mm"
   viewBox="0 0 76.766869 55.143661"
   version="1.1"
   id="logo"
   class="fadein"
   xml:space="preserve"
   xmlns="http://www.w3.org/2000/svg"
   xmlns:svg="http://www.w3.org/2000/svg">
    <defs id="defs2" />
    <g id="layer1" transform="translate(-33.3238,-230.26539)">
        <path
           style="fill:#ffffff;fill-opacity:1;stroke-width:0.176389"
           d="m 65.930222,285.2847 c -3.3009,-0.16702 -8.17913,-0.62125 -10.23055,-0.95261 -0.82462,-0.13319 -2.174,-0.33446 -2.99862,-0.44723 -0.82461,-0.11278 -1.97555,-0.30906 -2.55763,-0.4362 -0.58209,-0.12711 -1.73303,-0.36634 -2.55764,-0.53158 -1.51691,-0.30401 -5.65173,-1.53853 -6.21532,-1.85571 -0.16846,-0.0948 -0.40882,-0.17237 -0.53414,-0.17237 -0.92799,0 -5.44278,-2.79627 -6.38522,-3.95473 -1.61756,-1.98834 -1.47914,-4.81932 0.3173,-6.4892 1.53508,-1.42694 5.72458,-3.69411 7.87849,-4.26349 0.53357,-0.14105 1.48607,-0.4145 2.11666,-0.60766 0.63059,-0.19317 1.78153,-0.48707 2.55764,-0.65312 0.77611,-0.16605 1.7626,-0.41145 2.19219,-0.54533 0.42959,-0.13388 1.0249,-0.24386 1.32292,-0.2444 0.29801,-5.3e-4 0.81965,-0.0778 1.1592,-0.17166 0.78357,-0.21663 4.83368,-0.83312 7.67292,-1.16793 0.8362,-0.0986 0.9127,-0.0719 1.47503,0.51485 0.3262,0.34037 0.548,0.69182 0.49288,0.78101 -0.0551,0.0892 -1.15545,0.26063 -2.44518,0.381 -1.28973,0.12037 -3.01964,0.32891 -3.84426,0.46342 -0.82462,0.13452 -2.29306,0.37054 -3.2632,0.52449 -0.97014,0.15395 -2.0417,0.35503 -2.38125,0.44686 -0.33955,0.0918 -1.4508,0.36203 -2.46944,0.60046 -5.14573,1.20444 -9.43332,3.10507 -11.25549,4.9894 -0.87295,0.90273 -1.09173,1.37546 -1.09173,2.35898 0,2.11768 2.49992,4.04313 7.77827,5.99087 1.58615,0.5853 6.69483,2.02006 7.83214,2.19964 0.19403,0.0306 1.18622,0.18371 2.20486,0.34016 1.01865,0.15645 2.32834,0.36127 2.91042,0.45514 0.58208,0.0939 1.89177,0.25172 2.91042,0.35076 1.01864,0.099 2.64583,0.25918 3.61597,0.35587 2.32069,0.23129 16.56752,0.2322 19.05,10e-4 3.74353,-0.34833 7.14268,-0.76836 10.14236,-1.2533 2.0168,-0.32604 7.31214,-1.66525 8.995838,-2.27507 1.90395,-0.68959 5.28939,-2.32617 6.12742,-2.96209 1.53124,-1.16198 1.98646,-1.90027 1.98646,-3.22173 0,-1.09062 -0.26446,-1.6288 -1.26467,-2.57351 -1.56126,-1.47467 -4.51871,-2.89637 -8.524908,-4.09809 -1.57284,-0.4718 -2.29472,-0.65589 -4.93889,-1.25951 -0.38805,-0.0886 -1.4993,-0.2891 -2.46944,-0.44559 -0.97014,-0.15649 -2.16136,-0.3612 -2.64715,-0.45491 -0.48579,-0.0937 -1.7161,-0.24444 -2.73403,-0.33497 -2.94948,-0.2623 -3.88201,-0.39659 -3.99222,-0.57492 -0.0567,-0.0917 0.16382,-0.44501 0.49003,-0.78508 0.5661,-0.59019 0.63322,-0.61306 1.47503,-0.5027 0.48507,0.0636 1.71539,0.22416 2.73403,0.35681 1.01865,0.13265 2.56646,0.36873 3.43958,0.52463 0.87313,0.15589 2.09275,0.36078 2.71028,0.45531 0.61753,0.0945 1.17897,0.20659 1.24765,0.24904 0.0687,0.0424 0.71438,0.20733 1.43487,0.36641 2.34068,0.51681 2.5184,0.56332 4.661368,1.21978 2.5835,0.79141 4.98451,1.90991 6.93906,3.23253 2.33069,1.57715 3.09072,2.71463 3.09014,4.62477 -7e-4,2.25441 -1.35137,3.89425 -4.70375,5.71066 -3.34075,1.81012 -9.327328,3.57975 -14.674058,4.33766 -0.77611,0.11002 -2.12549,0.31278 -2.99861,0.45057 -5.69056,0.89809 -14.8996,1.30069 -21.78403,0.95237 z m -0.17639,-3.1605 c -5.29237,-0.46133 -7.02559,-0.67947 -9.26041,-1.16552 -6.22144,-1.35309 -8.71257,-2.35989 -10.69112,-4.32087 -1.05953,-1.05012 -1.18702,-1.25317 -1.29925,-2.06915 -0.2275,-1.65412 -0.009,-2.28388 1.20742,-3.4819 2.19118,-2.15784 7.09759,-3.89638 13.34058,-4.72712 1.11566,-0.14846 2.73782,-0.36831 3.6048,-0.48855 1.21569,-0.16861 1.59232,-0.1706 1.64629,-0.009 0.0385,0.11546 0.13265,0.20993 0.20925,0.20993 0.38841,0 1.7898,0.75792 1.65347,0.89426 -0.0856,0.0856 -1.38387,0.28042 -2.88506,0.43298 -1.50119,0.15253 -3.12632,0.35439 -3.61138,0.44857 -0.48507,0.0942 -1.51695,0.28832 -2.29306,0.43145 -2.23932,0.41294 -4.00634,0.81523 -4.67431,1.06415 -0.33954,0.12653 -1.21267,0.44124 -1.94027,0.69936 -1.50381,0.53348 -1.51856,0.53961 -2.11667,0.88057 -1.10458,0.62969 -2.3043,1.62988 -2.48876,2.07485 -0.53898,1.30021 0.48895,2.77047 2.72386,3.89597 1.6671,0.83955 2.48624,1.13565 4.88018,1.76406 0.53357,0.14007 1.44639,0.38351 2.02847,0.54097 0.95818,0.25921 2.20798,0.45086 7.76111,1.1901 2.43222,0.32378 13.80517,0.32294 16.22778,-0.001 6.02528,-0.80615 8.61609,-1.28109 10.67153,-1.95627 0.33955,-0.11154 1.01423,-0.32525 1.4993,-0.47491 1.33545,-0.41205 3.625,-1.58733 4.34325,-2.22949 0.80388,-0.71866 1.03661,-1.16844 1.03661,-2.00328 0,-0.55896 -0.13099,-0.78764 -0.84584,-1.47666 -0.70038,-0.67508 -3.18528,-2.11848 -3.64709,-2.11848 -0.0704,0 -0.37818,-0.11102 -0.68388,-0.24671 -1.94887,-0.86506 -7.2265,-1.95405 -12.15339,-2.50773 -2.01043,-0.22594 -2.77813,-0.37592 -2.77813,-0.54277 0,-0.12681 0.0845,-0.23057 0.18769,-0.23057 0.10323,0 0.63234,-0.20338 1.1758,-0.45197 0.91473,-0.4184 1.07436,-0.43884 2.14946,-0.27524 0.63875,0.0972 2.19323,0.3058 3.45441,0.46354 2.29054,0.2865 3.80512,0.57731 5.46806,1.04992 0.48507,0.13786 1.23913,0.3442 1.67569,0.45853 2.38872,0.6256 4.95886,1.9545 6.25041,3.23179 0.9378,0.92745 1.12175,1.21686 1.30461,2.05255 0.17984,0.82187 0.16923,1.10095 -0.0684,1.79827 -0.84244,2.47244 -5.04627,4.67119 -11.05805,5.78374 -0.46055,0.0852 -0.92777,0.21083 -1.03827,0.27913 -0.20635,0.12753 -1.05077,0.24857 -4.12158,0.59078 -0.97014,0.10812 -2.39889,0.27984 -3.175,0.38161 -1.8125,0.23767 -11.48111,0.35087 -13.67014,0.16005 z m 0,-3.19592 c -3.63018,-0.51008 -6.53885,-1.23345 -8.11389,-2.01786 -0.91834,-0.45736 -2.08689,-1.44943 -2.38398,-2.02394 -0.6381,-1.23394 -0.11929,-2.45867 1.50687,-3.55725 1.55547,-1.05082 4.23672,-1.83776 8.33664,-2.44677 2.11815,-0.31464 3.0526,-0.35189 7.23195,-0.28828 5.48294,0.0835 6.91255,0.25564 11.23769,1.35347 1.24268,0.31542 3.20713,1.3288 3.92227,2.02333 0.35807,0.34776 0.74566,0.94809 0.8613,1.33406 0.1801,0.60113 0.16382,0.80476 -0.11357,1.41989 -0.40934,0.90776 -0.96355,1.37194 -2.60837,2.18466 -1.77574,0.87741 -3.72377,1.40765 -6.91232,1.8815 -1.61581,0.24012 -11.48854,0.34459 -12.96459,0.13719 z m 10.75972,-1.56035 c 3.59522,-0.39569 4.49204,-0.55686 6.52639,-1.17286 1.84483,-0.55861 3.08723,-1.21377 3.55952,-1.87704 0.34898,-0.49009 0.3499,-0.5139 0.0343,-0.89094 -0.59669,-0.71287 -1.02861,-0.99508 -2.18271,-1.42615 -3.54129,-1.3227 -7.52416,-1.91689 -12.7,-1.89466 -5.32558,0.0229 -9.27586,0.57596 -12.43541,1.74112 -1.60241,0.59092 -2.73403,1.42993 -2.73403,2.02706 0,0.68219 1.48961,1.66078 3.39549,2.23065 0.3638,0.10877 0.94683,0.28502 1.29563,0.39166 0.75159,0.22978 2.04381,0.44557 4.21652,0.7041 0.87312,0.1039 2.10344,0.25142 2.73403,0.32783 2.0377,0.24692 5.13107,0.18693 8.29027,-0.16077 z m -7.05555,-11.20769 c -1.53926,-0.26498 -2.41918,-0.48862 -2.9117,-0.74005 -1.32267,-0.67521 -1.68486,-0.87994 -2.49566,-1.41067 -1.84991,-1.2109 -4.21615,-4.1755 -4.96287,-6.21785 -0.61891,-1.69277 -0.77836,-2.65862 -0.80241,-4.86032 -0.0348,-3.18254 0.54014,-5.317 2.56551,-9.525 0.92884,-1.92978 3.06435,-5.08098 4.96073,-7.32013 1.70744,-2.01607 5.57132,-5.82084 5.91126,-5.82084 0.47673,0 5.88313,5.63088 7.53189,7.84462 0.64827,0.87041 2.0213,2.93972 2.0213,3.04632 0,0.0434 0.14851,0.2896 0.33002,0.54711 0.98224,1.3935 3.01722,6.10294 3.02403,6.99833 0.001,0.19197 0.11704,0.66654 0.25684,1.05459 0.30339,0.84214 0.35646,4.74644 0.0791,5.82084 -0.5684,2.20197 -0.78438,2.7229 -1.86764,4.5047 -2.04475,3.36333 -5.41017,5.5365 -9.52908,6.15327 -1.56084,0.23372 -2.40815,0.21828 -4.11135,-0.0749 z m 5.26452,-1.77366 c 3.36992,-0.92802 6.13267,-3.16695 7.60558,-6.16356 1.51912,-4.25978 1.49633,-7.50879 0.0258,-11.34574 -0.0792,-0.16276 -0.26612,-0.57374 -0.41542,-0.91329 -0.37878,-0.86144 -0.82149,-1.80322 -0.99499,-2.11666 -0.0806,-0.14552 -0.29035,-0.5424 -0.46622,-0.88195 -0.53942,-1.04145 -2.36909,-3.72105 -3.49278,-5.11528 -1.28495,-1.59431 -5.05053,-5.46805 -5.31537,-5.46805 -0.22817,0 -3.38764,3.19745 -4.61877,4.6743 -1.1513,1.3811 -2.62876,3.41576 -3.5223,4.8507 -0.79968,1.28419 -2.3603,4.47015 -2.3603,4.81846 0,0.12444 -0.0631,0.30167 -0.14016,0.39383 -0.4508,0.53896 -1.27095,4.31601 -1.27095,5.85313 0,2.59121 1.23393,5.79042 2.94702,7.64077 1.72712,1.86549 3.33791,2.94327 5.40228,3.61466 1.58888,0.51675 5.01775,0.59898 6.61661,0.15868 z"
           id="path293-3-5" />
    </g>
    <style type="text/css">
        .fadein{
            animation: fadein 3s;
            transition: all ease-in-out 0.5s;
        }

        @keyframes fadein {
            0% { opacity:0; }
            100% { opacity:1; }
        }
    </style>
</svg>
