<?xml version="1.0" encoding="UTF-8" standalone="no"?>
<svg
   width="1100"
   height="300"
   xml:space="preserve"
   overflow="hidden"
   version="1.1"
   id="svg82"
   class="fadein"
   sodipodi:docname="h2open.svg"
   inkscape:version="1.2 (dc2aeda, 2022-05-15)"
   xmlns:inkscape="http://www.inkscape.org/namespaces/inkscape"
   xmlns:sodipodi="http://sodipodi.sourceforge.net/DTD/sodipodi-0.dtd"
   xmlns="http://www.w3.org/2000/svg"
   xmlns:svg="http://www.w3.org/2000/svg"><sodipodi:namedview
     id="namedview84"
     pagecolor="#ffffff"
     bordercolor="#000000"
     borderopacity="0.25"
     inkscape:showpageshadow="2"
     inkscape:pageopacity="0.0"
     inkscape:pagecheckerboard="0"
     inkscape:deskcolor="#d1d1d1"
     showgrid="false"
     inkscape:zoom="0.40549828"
     inkscape:cx="738.59746"
     inkscape:cy="291"
     inkscape:window-width="1470"
     inkscape:window-height="920"
     inkscape:window-x="0"
     inkscape:window-y="36"
     inkscape:window-maximized="0"
     inkscape:current-layer="svg82" /><defs
     id="defs70"><clipPath
       id="clip0"><rect
         x="444"
         y="1411"
         width="1481"
         height="582"
         id="rect67" /></clipPath><clipPath
       id="clip0-3"><rect
         x="444"
         y="1411"
         width="1481"
         height="582"
         id="rect67-9" /></clipPath></defs><g
     clip-path="url(#clip0)"
     transform="translate(-624.02542,-1521.9745)"
     id="g80"
     style="fill:#ffffff;fill-opacity:1;stroke:#ffffff;stroke-width:3;stroke-dasharray:none;stroke-opacity:1"
     inkscape:export-filename="g80.svg"
     inkscape:export-xdpi="96"
     inkscape:export-ydpi="96"><g
       aria-label="H"
       transform="translate(614.624,1751)"
       id="text72"
       style="font-weight:800;font-size:275px;font-family:'MADE Waffle Soft', 'MADE Waffle Soft_MSFontService', sans-serif;fill:#ffffff;fill-opacity:1;stroke:#ffffff;stroke-width:3;stroke-dasharray:none;stroke-opacity:1"><path
         d="m 179.3,-192.5 h -42.9 c -3.85,0 -6.875,3.025 -6.875,6.875 V -119.9 H 70.4 v -65.725 c 0,-3.575 -3.025,-6.875 -6.875,-6.875 h -42.9 c -3.85,0 -6.875,3.025 -6.875,6.875 v 178.75 c 0,3.85 3.025,6.875 6.875,6.875 h 42.9 C 67.375,0 70.4,-3.025 70.4,-6.875 V -72.6 h 59.125 v 65.725 c 0,3.85 3.025,6.875 6.875,6.875 h 42.9 c 3.85,0 6.875,-3.025 6.875,-6.875 v -178.75 c 0,-3.575 -3.025,-6.875 -6.875,-6.875 z"
         id="path966"
         style="fill:#ffffff;fill-opacity:1;stroke:#ffffff;stroke-width:3;stroke-dasharray:none;stroke-opacity:1" /></g><g
       aria-label="2"
       transform="translate(832.905,1751)"
       id="text74"
       style="font-weight:800;font-size:220px;font-family:'MADE Waffle Soft', 'MADE Waffle Soft_MSFontService', sans-serif;fill:#ffffff;fill-opacity:1;stroke:#ffffff;stroke-width:3;stroke-dasharray:none;stroke-opacity:1"><path
         d="M 121.22,-37.84 H 83.16 c 21.12,-15.4 43.56,-45.1 42.24,-74.58 -1.76,-41.58 -38.5,-44.22 -56.76,-44.22 -11.22,0 -57.64,3.3 -57.64,51.48 0,6.6 1.1,10.34 10.78,10.34 12.32,0 19.36,0 23.76,0 6.38,0 7.7,-1.98 8.58,-8.58 1.1,-11.66 7.04,-14.96 11.44,-15.4 5.5,-0.44 13.86,1.76 11.66,17.6 -2.86,21.12 -18.26,35.64 -62.04,69.08 -3.74,2.64 -4.18,4.84 -4.18,7.92 v 18.7 c 0,3.08 2.64,5.5 5.5,5.5 h 104.72 c 3.08,0 5.5,-2.42 5.5,-5.5 v -26.84 c 0,-3.08 -2.42,-5.5 -5.5,-5.5 z"
         id="path963"
         style="fill:#ffffff;fill-opacity:1;stroke:#ffffff;stroke-width:3;stroke-dasharray:none;stroke-opacity:1" /></g><g
       aria-label="O"
       transform="translate(988.738,1751)"
       id="text76"
       style="font-weight:800;font-size:275px;font-family:'MADE Waffle Soft', 'MADE Waffle Soft_MSFontService', sans-serif;fill:#ffffff;fill-opacity:1;stroke:#ffffff;stroke-width:3;stroke-dasharray:none;stroke-opacity:1"><path
         d="m 116.875,-195.8 c -56.1,0 -103.125,44.55 -103.125,99.55 0,55 47.025,99.55 103.125,99.55 C 172.7,3.3 220,-41.25 220,-96.25 c 0,-55 -47.3,-99.55 -103.125,-99.55 z m 0,150.425 c -26.95,0 -48.95,-22.825 -48.95,-50.875 0,-28.05 22,-50.6 48.95,-50.6 26.95,0 48.675,22.55 48.675,50.6 0,28.05 -21.725,50.875 -48.675,50.875 z"
         id="path960"
         style="fill:#ffffff;fill-opacity:1;stroke:#ffffff;stroke-width:3;stroke-dasharray:none;stroke-opacity:1" /></g><g
       aria-label="pen"
       transform="translate(1240.82,1751)"
       id="text78"
       style="font-weight:800;font-size:248px;font-family:'MADE Waffle Soft', 'MADE Waffle Soft_MSFontService', sans-serif;fill:#ffffff;fill-opacity:1;stroke:#ffffff;stroke-width:3;stroke-dasharray:none;stroke-opacity:1"><path
         d="m 97.712,-135.16 c -13.392,0 -31.248,8.432 -36.456,15.872 v -6.2 c 0,-3.472 -2.976,-6.2 -6.2,-6.2 H 18.352 c -3.224,0 -5.952,2.728 -5.952,6.2 V 45.88 c 0,3.472 2.728,6.2 5.952,6.2 h 36.704 c 3.224,0 6.2,-2.728 6.2,-6.2 V -8.432 C 71.672,-1.24 84.32,2.976 97.712,2.976 c 36.704,0 63.24,-31 63.24,-69.192 0,-38.192 -26.536,-68.944 -63.24,-68.944 z m -10.664,98.952 c -14.384,0 -25.792,-13.392 -25.792,-30.008 0,-16.616 11.408,-30.256 25.792,-30.256 14.136,0 25.048,13.64 25.048,30.256 0,16.616 -10.912,30.008 -25.048,30.008 z"
         id="path957"
         style="fill:#ffffff;fill-opacity:1;stroke:#ffffff;stroke-width:3;stroke-dasharray:none;stroke-opacity:1" /><path
         d="m 298.34374,-50.84 c 13.392,0 14.632,-4.216 14.632,-15.376 0,-38.192 -23.064,-68.944 -62,-68.944 -44.64,0 -70.184,30.752 -70.184,68.944 0,38.192 25.792,69.192 72.168,69.192 17.112,0 37.2,-2.976 51.584,-11.904 2.232,-1.488 3.968,-4.216 2.48,-8.184 -1.24,-2.976 -5.952,-15.872 -6.944,-18.352 -1.984,-3.72 -5.456,-3.72 -8.68,-2.48 -8.928,3.968 -17.856,6.944 -32.984,6.448 -9.424,-0.248 -23.808,-4.464 -28.768,-19.344 44.144,0 63.24,0 68.696,0 z m -47.368,-50.096 c 11.656,0 17.608,10.168 17.608,25.296 h -39.928 c 0,-15.376 8.68,-25.296 22.32,-25.296 z"
         id="path954"
         style="fill:#ffffff;fill-opacity:1;stroke:#ffffff;stroke-width:3;stroke-dasharray:none;stroke-opacity:1" /><path
         d="m 341.49554,0 h 36.456 c 3.472,0 6.2,-2.728 6.2,-5.952 0,0 0,-66.464 0,-73.16 0,-13.888 10.912,-17.36 17.856,-17.36 6.448,0 17.608,3.72 17.608,17.36 v 73.16 c 0,3.224 2.728,5.952 6.2,5.952 h 36.456 c 3.472,0 6.2,-2.728 6.2,-5.952 v -81.592 c 0,-30.504 -13.392,-47.616 -46.376,-47.616 -14.88,0 -32.488,7.936 -37.944,15.872 v -6.2 c 0,-3.472 -2.728,-6.2 -6.2,-6.2 h -36.456 c -3.472,0 -6.2,2.728 -6.2,6.2 V -5.952 c 0,3.224 2.728,5.952 6.2,5.952 z"
         id="path951"
         style="fill:#ffffff;fill-opacity:1;stroke:#ffffff;stroke-width:3;stroke-dasharray:none;stroke-opacity:1" /></g></g>
    <style type="text/css">
        .fadein{
            animation: fadein 3s;
            transition: all ease-in-out 0.5s;
        }

        @keyframes fadein {
            0% { opacity:0; }
            100% { opacity:1; }
        }
    </style>
</svg>
