<?xml version="1.0" encoding="UTF-8" standalone="no"?>
<!--?xml version="1.0" encoding="utf-8"?-->

<!-- Generator: Adobe Illustrator 18.0.0, SVG Export Plug-In . SVG Version: 6.00 Build 0)  -->

<svg
   version="1.1"
   id="_x31_0"
   x="0px"
   y="0px"
   viewBox="0 0 512 512"
   style="width: 256px; height: 256px; opacity: 1;"
   xml:space="preserve"
   sodipodi:docname="pin_blue.svg"
   inkscape:version="1.2 (dc2aeda, 2022-05-15)"
   xmlns:inkscape="http://www.inkscape.org/namespaces/inkscape"
   xmlns:sodipodi="http://sodipodi.sourceforge.net/DTD/sodipodi-0.dtd"
   xmlns="http://www.w3.org/2000/svg"
   xmlns:svg="http://www.w3.org/2000/svg"><defs
   id="defs1343" /><sodipodi:namedview
   id="namedview1341"
   pagecolor="#ffffff"
   bordercolor="#000000"
   borderopacity="0.25"
   inkscape:showpageshadow="2"
   inkscape:pageopacity="0.0"
   inkscape:pagecheckerboard="0"
   inkscape:deskcolor="#d1d1d1"
   showgrid="false"
   inkscape:zoom="0.4609375"
   inkscape:cx="254.91525"
   inkscape:cy="256"
   inkscape:window-width="1470"
   inkscape:window-height="920"
   inkscape:window-x="0"
   inkscape:window-y="36"
   inkscape:window-maximized="0"
   inkscape:current-layer="_x31_0" />
<style
   type="text/css"
   id="style1334">
	.st0{fill:#374149;}
</style>
<g
   id="g1338"
   transform="matrix(1.061754,0,0,0.98617686,-7.3989947,6.9131609)">
	<path
   class="st0"
   d="m 260.33898,3.7354907 c -76.55781,0 -138.88936,65.8575393 -138.88936,146.7451293 0,77.55984 138.88936,349.12341 138.88936,349.12341 0,0 138.88936,-271.56357 138.88936,-349.12341 0,-80.88759 -62.33155,-146.7451293 -138.88936,-146.7451293 z m 0,202.3773193 c -29.11067,0 -52.72424,-24.86994 -52.72424,-55.63219 -9.2e-4,-30.76031 23.61357,-55.706764 52.72424,-55.706764 29.11433,0 52.65366,24.946454 52.65366,55.706764 -9.2e-4,30.76225 -23.53933,55.63219 -52.65366,55.63219 z"
   style="fill:#3aabd2;stroke:#ffffff;stroke-width:19.5452234;stroke-dasharray:none;stroke-opacity:1"
   id="path1465" />
</g>
<path
   style="fill:none;stroke:none;stroke-width:32.5424;stroke-dasharray:none;stroke-opacity:1"
   d="M 247.32203,219.37703 C 193.80029,205.3808 186.01415,129.1514 235.57662,104.38474 c 18.34026,-9.164738 31.18447,-9.164738 49.52472,0 44.41218,22.19303 44.29677,87.62101 -0.19501,110.54856 -9.13906,4.70955 -28.02774,6.94283 -37.5843,4.44373 z"
   id="path11396" /></svg>
