<!--?xml version="1.0" encoding="utf-8"?-->
<!-- Generator: Adobe Illustrator 22.1.0, SVG Export Plug-In . SVG Version: 6.00 Build 0)  -->
<svg version="1.1" id="_x35_" xmlns="http://www.w3.org/2000/svg" xmlns:xlink="http://www.w3.org/1999/xlink" x="0px" y="0px" viewBox="0 0 800 551.576" style="enable-background:new 0 0 800 551.576;" xml:space="preserve">
<style type="text/css">
	.st0{fill:#5AB8D9;}
</style>
<g>
	<path class="st0" d="M756.476,200.098c-28.952,0-46.068,25.021-56.595,51.344c-10.533,26.311-63.173,43.434-85.534,25.009
		c-22.38-18.425-17.174-64.712-1.383-83.138c15.79-18.425,26.604-17.024,42.413-41.206c20.604-31.518,1.365-64.35-18.174-72.723
		c-25.454-10.903-71.503-6.346-74.188,50.97c-2.159,45.987-27.649,77.655-53.967,84.238c-26.323,6.572-76.327-1.327-77.655-42.106
		c-1.307-40.806,14.333-63.611,19.753-96.081c5.263-31.593-6.404-75.026-51.152-75.026c-44.742,0-56.389,43.433-51.124,75.026
		c5.419,32.47,21.059,55.275,19.732,96.081c-1.307,40.78-51.313,48.678-77.636,42.106c-26.317-6.583-51.808-38.251-53.968-84.238
		c-2.684-57.316-48.74-61.872-74.188-50.97c-19.539,8.373-38.776,41.205-18.181,72.723c15.816,24.182,26.624,22.782,42.421,41.206
		c15.789,18.425,20.996,64.713-1.384,83.138c-22.379,18.425-75.026,1.302-85.553-25.009c-10.526-26.323-27.624-51.344-56.576-51.344
		c-28.971,0-50.013,25.021-38.177,55.286c11.854,30.28,55.275,44.75,77.655,63.175c22.362,18.425,43.44,68.442,51.338,89.496
		c3.768,10.063,16.053,47.164,21.316,57.077c27.632,51.995,131.016,85.065,244.325,85.065c113.335,0,216.719-33.07,244.351-85.065
		c5.263-9.913,17.548-47.014,21.316-57.077c7.898-21.054,28.952-71.072,51.339-89.496c22.362-18.425,65.801-32.895,77.636-63.175
		C806.488,225.119,785.428,200.098,756.476,200.098z M591.967,427.181c-23.445,18.599-58.173,20.214-35.561-4.832
		c17.416-19.276,24.502-53.898,0.813-67.066c-23.688-13.143-54.931-0.801-51.713,43.635c2.71,37.075-21.661,59.443-50.9,54.937
		c-26.129-4.018-33.001-13.193-32.225-38.739c0.72-24.271,6.265-32.395,11.836-53.347c6.665-25.059-5.264-52.659-34.223-52.659
		c-28.952,0-40.862,27.6-34.215,52.659c5.589,20.953,11.116,29.076,11.854,53.347c0.757,25.546-6.096,34.721-32.243,38.739
		c-29.221,4.506-53.592-17.862-50.901-54.937c3.235-44.435-28.007-56.777-51.695-43.635c-23.707,13.168-16.604,47.79,0.795,67.066
		c22.63,25.047-12.116,23.432-35.543,4.832c-17.574-13.919-22.967-28.326-22.967-46.764c0-58.879,96.455-106.607,214.915-106.607
		c118.48,0,214.923,47.728,214.923,106.607C614.916,398.855,609.534,413.262,591.967,427.181z"></path>
</g>
</svg>
